<svg xmlns="http://www.w3.org/2000/svg" class="ionicon" viewBox="0 0 512 512" fill="#fff">
    <path d="M444.17 32H67.83C48.3 32 32 48.3 32 67.83v376.34C32 463.7 48.3 480 67.83 480h376.34c19.53 0 35.83-16.3 35.83-35.83V67.83C480 48.3 463.7 32 444.17 32zM181.33 416h-64V192h64zm-32-256a37.33 37.33 0 1137.33-37.33A37.33 37.33 0 01149.33 160zM416 416h-64v-117.3c0-28-10-47-35-47-19 0-30.3 12.8-35.3 25.2-1.8 4.3-2.2 10.3-2.2 16.3V416h-64s.8-192 0-212h64v30c8.5-13.1 23.7-31.7 57.7-31.7 42.1 0 73.7 27.5 73.7 86.6z"/>
</svg>